<svg width="1665" height="500" viewBox="0 0 1665 500" fill="none" xmlns="http://www.w3.org/2000/svg">
<path d="M651.66 360V139.9H730.71C757.163 139.9 777.107 144.653 790.54 154.16C803.973 163.667 810.69 178.753 810.69 199.42C810.69 212.027 807.073 222.567 799.84 231.04C792.607 239.307 782.583 244.37 769.77 246.23C785.683 248.09 797.98 253.773 806.66 263.28C815.547 272.787 819.99 284.877 819.99 299.55C819.99 319.597 813.273 334.683 799.84 344.81C786.407 354.937 767.29 360 742.49 360H651.66ZM685.14 233.83H730.09C744.763 233.83 756.13 231.04 764.19 225.46C772.25 219.88 776.28 212.027 776.28 201.9C776.28 180.613 760.883 169.97 730.09 169.97H685.14V233.83ZM685.14 329.93H741.56C755.407 329.93 766.153 327.14 773.8 321.56C781.653 315.773 785.58 307.403 785.58 296.45C785.58 285.703 781.653 277.333 773.8 271.34C766.153 265.347 755.407 262.35 741.56 262.35H685.14V329.93ZM922.157 363.72C906.45 363.72 892.707 360.207 880.927 353.18C869.147 345.947 860.053 335.923 853.647 323.11C847.24 310.297 844.037 295.107 844.037 277.54C844.037 259.973 847.24 244.783 853.647 231.97C860.053 219.157 869.147 209.237 880.927 202.21C892.707 194.977 906.45 191.36 922.157 191.36C937.863 191.36 951.607 194.977 963.387 202.21C975.167 209.237 984.26 219.157 990.667 231.97C997.073 244.783 1000.28 259.973 1000.28 277.54C1000.28 295.107 997.073 310.297 990.667 323.11C984.26 335.923 975.167 345.947 963.387 353.18C951.607 360.207 937.863 363.72 922.157 363.72ZM922.157 335.2C936.21 335.2 947.06 330.137 954.707 320.01C962.353 309.883 966.177 295.727 966.177 277.54C966.177 259.56 962.353 245.507 954.707 235.38C947.06 225.047 936.21 219.88 922.157 219.88C908.31 219.88 897.46 225.047 889.607 235.38C881.96 245.507 878.137 259.56 878.137 277.54C878.137 295.727 881.96 309.883 889.607 320.01C897.46 330.137 908.31 335.2 922.157 335.2ZM1027.29 360V195.08H1057.36L1058.29 226.39C1061.39 215.643 1066.14 207.79 1072.55 202.83C1079.16 197.663 1087.53 195.08 1097.66 195.08H1113.47V224.53H1097.66C1085.05 224.53 1075.65 227.63 1069.45 233.83C1063.25 240.03 1060.15 249.64 1060.15 262.66V360H1027.29ZM1189.27 363.72C1175.21 363.72 1163.02 360.207 1152.69 353.18C1142.35 346.153 1134.4 336.233 1128.82 323.42C1123.24 310.4 1120.45 295.107 1120.45 277.54C1120.45 259.973 1123.24 244.783 1128.82 231.97C1134.4 218.95 1142.35 208.927 1152.69 201.9C1163.02 194.873 1175.21 191.36 1189.27 191.36C1200.63 191.36 1210.76 193.737 1219.65 198.49C1228.53 203.243 1235.25 209.857 1239.8 218.33V139.9H1272.66V360H1241.97L1241.04 335.2C1236.49 344.293 1229.57 351.32 1220.27 356.28C1211.17 361.24 1200.84 363.72 1189.27 363.72ZM1197.95 335.2C1211.38 335.2 1221.71 330.137 1228.95 320.01C1236.18 309.883 1239.8 295.727 1239.8 277.54C1239.8 259.147 1236.18 244.99 1228.95 235.07C1221.71 224.943 1211.38 219.88 1197.95 219.88C1184.72 219.88 1174.18 225.047 1166.33 235.38C1158.47 245.507 1154.55 259.56 1154.55 277.54C1154.55 295.107 1158.47 309.16 1166.33 319.7C1174.18 330.033 1184.72 335.2 1197.95 335.2ZM1319.83 360V223.91H1296.89V197.25H1319.83V184.54C1319.83 170.9 1323.65 160.05 1331.3 151.99C1338.95 143.93 1350.93 139.9 1367.26 139.9H1396.4V166.87H1371.6C1358.99 166.87 1352.69 173.38 1352.69 186.4V197.25H1393.92V223.91H1352.69V360H1319.83ZM1478.89 363.72C1462.15 363.72 1448.93 358.243 1439.21 347.29C1429.5 336.337 1424.64 320.94 1424.64 301.1V195.08H1457.5V292.73C1457.5 307.61 1460.09 318.563 1465.25 325.59C1470.42 332.617 1478.27 336.13 1488.81 336.13C1500.8 336.13 1510.1 332.307 1516.71 324.66C1523.53 316.807 1526.94 305.853 1526.94 291.8V195.08H1559.8V360H1529.11L1528.8 333.03C1519.92 353.49 1503.28 363.72 1478.89 363.72ZM1636.04 360C1625.09 360 1616.31 357.21 1609.69 351.63C1603.29 346.05 1600.08 337.163 1600.08 324.97V139.9H1632.94V321.87C1632.94 329.31 1636.77 333.03 1644.41 333.03H1657.43V360H1636.04Z" fill="black"/>
<rect x="248" y="25" width="221" height="285" fill="white"/>
<path fill-rule="evenodd" clip-rule="evenodd" d="M15.6904 127.167C5.64356 137.211 0 150.839 0 165.048V446.428C0 476.013 23.9846 500 53.5714 500H334.953C349.161 500 362.788 494.354 372.833 484.309L484.309 372.833C494.357 362.788 500 349.161 500 334.952V53.5714C500 23.9868 476.016 0 446.428 0H165.047C150.839 0 137.212 5.64578 127.167 15.6904L15.6904 127.167ZM250 281.503C250 287.947 255.223 293.169 261.667 293.169H381.118C407.636 293.169 428.126 286.547 442.59 273.307C457.054 260.067 464.286 243.273 464.286 222.922C464.286 207.472 459.585 193.987 450.183 182.464C440.782 170.693 428.849 163.339 414.385 160.396C426.679 156.965 437.046 150.465 445.483 140.904C454.161 131.095 458.501 118.099 458.501 101.916C458.501 82.5456 451.51 66.7333 437.527 54.4739C423.787 41.966 403.778 35.7143 377.502 35.7143H261.667C255.223 35.7143 250 40.9372 250 47.3807V281.503Z" fill="black"/>
</svg>
