<svg width="133" height="16" viewBox="0 0 133 16" fill="none" xmlns="http://www.w3.org/2000/svg">
<path d="M10.6667 5.3332V0H0V5.3332L10.6667 5.3332Z" fill="#079455"/>
<path d="M10.6665 10.6663C7.72094 10.6663 5.33312 13.0541 5.33312 15.9995L0.000651593 15.9998L0.000651595 15.8621C0.0739482 10.0574 4.78418 5.36999 10.5978 5.33336L16 5.3336V16H10.6667L10.6665 10.6663Z" fill="#079455"/>
<path d="M27.4049 1.8625C30.4324 1.8625 32.3574 3.3675 32.6549 5.94L29.8024 6.22C29.5924 4.8375 28.9099 4.2075 27.3874 4.2075C25.3749 4.2075 24.4124 5.7125 24.4124 8.25C24.4124 10.7875 25.4974 12.31 27.4574 12.31C29.2424 12.31 30.0999 11.4525 30.1874 9.44H26.4249V7.165H33.3899V9.8075C33.3899 12.2225 33.4599 13.22 33.7049 14.375H30.8174C30.7649 14.06 30.7124 13.57 30.7124 13.01C30.6949 12.1 30.9399 11.19 31.2724 10.315L30.7824 10.2275C30.6774 11.155 30.5199 12.2225 30.0824 13.01C29.5049 14.025 28.4199 14.6375 26.9149 14.6375C23.5724 14.6375 21.5424 12.2575 21.5424 8.25C21.5424 4.2425 23.5549 1.8625 27.4049 1.8625Z" fill="#0A0D12"/>
<path d="M34.7312 4.75H37.5137C37.5137 5.9575 37.0762 7.27 36.6387 8.285L37.1112 8.4075C37.3737 6.7275 37.9862 4.4875 40.0687 4.4875C42.0287 4.4875 42.9737 6.115 42.9912 8.635L40.1912 8.9325C40.1037 7.305 39.7362 6.71 38.9312 6.71C38.0737 6.71 37.5662 7.375 37.5137 9.3875V14.375H34.7312V4.75Z" fill="#0A0D12"/>
<path d="M43.289 9.5625C43.289 6.325 45.2665 4.4875 48.329 4.4875C51.3915 4.4875 53.369 6.325 53.369 9.5625C53.369 12.8 51.3915 14.6375 48.329 14.6375C45.2665 14.6375 43.289 12.8 43.289 9.5625ZM46.054 9.5625C46.054 11.4 46.964 12.45 48.329 12.45C49.694 12.45 50.5865 11.4 50.5865 9.5625C50.5865 7.7075 49.694 6.675 48.329 6.675C46.964 6.675 46.054 7.7075 46.054 9.5625Z" fill="#0A0D12"/>
<path d="M62.6457 4.75L63.7307 10.2625C63.9582 11.435 63.9582 12.2925 63.8707 13.4125H64.3432C64.2382 12.2925 64.1857 11.4175 64.4482 10.2625L65.6907 4.75H68.5257L66.1982 14.375H62.4007L61.3157 9.16C61.0532 7.7775 61.0532 7.06 61.1407 5.8875H60.6682C60.7557 7.06 60.7732 7.7775 60.4932 9.16L59.4082 14.375H55.6107L53.2832 4.75H56.1182L57.3782 10.2625C57.6232 11.4175 57.5882 12.2925 57.4832 13.4125H57.9557C57.8507 12.2925 57.8507 11.435 58.0782 10.2625L59.1632 4.75H62.6457Z" fill="#0A0D12"/>
<path d="M70.6733 2.125H73.2633C73.2633 4.19 72.5283 4.715 70.6558 5.1525L70.8308 5.6075C71.7758 5.135 72.5983 4.75 74.3133 4.75H76.3608V6.92H72.9483V10.77C72.9483 11.855 73.4908 12.24 74.3133 12.24C75.0658 12.24 75.7308 11.9075 76.2208 11.47L76.5533 13.78C75.9758 14.2 74.8908 14.6375 73.5958 14.6375C71.5133 14.6375 70.2183 13.7275 70.2183 11.1025L70.2358 6.92H68.2758V4.75H68.9583C70.4283 4.75 70.7783 3.805 70.6733 2.125Z" fill="#0A0D12"/>
<path d="M83.32 4.4875C85.56 4.4875 86.89 6.1675 86.89 8.7925L86.9075 14.375H84.125V9.125C84.125 7.585 83.4775 6.8325 82.235 6.8325C81.01 6.8325 80.3625 7.515 80.2575 9.2125V14.375H77.475V1.25H80.2575V4.75C80.2575 6.1675 79.82 7.27 79.3825 8.285L79.855 8.4075C80.1875 6.465 81.01 4.4875 83.32 4.4875Z" fill="#0A0D12"/>
<path d="M98.4465 9.4225V2.125H101.299V9.7025C101.299 12.94 99.9515 14.6375 96.5915 14.6375C93.669 14.6375 92.0065 13.115 91.814 10.4375L94.649 10.1225C94.789 11.5225 95.419 12.17 96.609 12.17C97.974 12.17 98.4465 11.365 98.4465 9.4225Z" fill="#0A0D12"/>
<path d="M102.124 9.5625C102.124 6.325 104.101 4.4875 107.164 4.4875C110.226 4.4875 112.204 6.325 112.204 9.5625C112.204 12.8 110.226 14.6375 107.164 14.6375C104.101 14.6375 102.124 12.8 102.124 9.5625ZM104.889 9.5625C104.889 11.4 105.799 12.45 107.164 12.45C108.529 12.45 109.421 11.4 109.421 9.5625C109.421 7.7075 108.529 6.675 107.164 6.675C105.799 6.675 104.889 7.7075 104.889 9.5625Z" fill="#0A0D12"/>
<path d="M119.079 4.4875C121.371 4.4875 123.051 6.325 123.051 9.5625C123.051 12.8 121.371 14.6375 119.079 14.6375C116.629 14.6375 115.736 12.66 115.439 10.5775L114.966 10.6825C115.404 11.7675 115.824 13.0975 115.824 14.375H113.041V1.25H115.824V4.75C115.824 6.0275 115.404 7.3575 114.966 8.425L115.439 8.5475C115.736 6.465 116.629 4.4875 119.079 4.4875ZM115.754 9.5625C115.754 11.4 116.646 12.45 118.011 12.45C119.376 12.45 120.269 11.4 120.269 9.5625C120.269 7.7075 119.376 6.675 118.011 6.675C116.646 6.675 115.754 7.7075 115.754 9.5625Z" fill="#0A0D12"/>
<path d="M127.731 4.4875C130.688 4.4875 131.616 5.835 132.053 7.3575L129.498 7.6375C129.306 6.9375 128.886 6.5525 127.766 6.5525C126.768 6.5525 126.331 6.955 126.331 7.3575C126.331 8.0225 127.171 8.215 128.746 8.53C130.671 8.8975 132.351 9.3 132.351 11.54C132.351 13.255 130.951 14.6375 128.133 14.6375C125.316 14.6375 123.618 13.43 123.426 11.26L125.981 10.9975C126.156 12.0825 126.716 12.5725 128.046 12.5725C129.131 12.5725 129.708 12.1525 129.708 11.505C129.708 10.595 128.868 10.4375 127.293 10.14C125.508 9.8075 123.688 9.4225 123.688 7.34C123.688 5.765 125.018 4.4875 127.731 4.4875Z" fill="#0A0D12"/>
</svg>
